<svg xmlns="http://www.w3.org/2000/svg" width="200" height="220" viewBox="0 0 200 220" shape-rendering="crispEdges">

<!-- shadow -->
<ellipse cx="100" cy="212" rx="55" ry="5" fill="#00884422">
  <animate attributeName="rx" values="55;38;55" dur="1.2s" repeatCount="indefinite"/>
<animate attributeName="opacity" values="0.35;0.18;0.35" dur="1.2s" repeatCount="indefinite"/>
</ellipse>

<!-- grass static -->
<rect x="0" y="200" width="10" height="10" fill="#00DD66"/><rect x="10" y="200" width="10" height="10" fill="#00DD66"/><rect x="20" y="200" width="10" height="10" fill="#00DD66"/><rect x="30" y="200" width="10" height="10" fill="#00DD66"/><rect x="40" y="200" width="10" height="10" fill="#00DD66"/><rect x="50" y="200" width="10" height="10" fill="#00DD66"/><rect x="60" y="200" width="10" height="10" fill="#00DD66"/><rect x="70" y="200" width="10" height="10" fill="#00DD66"/><rect x="80" y="200" width="10" height="10" fill="#00DD66"/><rect x="90" y="200" width="10" height="10" fill="#00DD66"/><rect x="100" y="200" width="10" height="10" fill="#00DD66"/><rect x="110" y="200" width="10" height="10" fill="#00DD66"/><rect x="120" y="200" width="10" height="10" fill="#00DD66"/><rect x="130" y="200" width="10" height="10" fill="#00DD66"/><rect x="140" y="200" width="10" height="10" fill="#00DD66"/><rect x="150" y="200" width="10" height="10" fill="#00DD66"/><rect x="0" y="210" width="10" height="10" fill="#00AA44"/><rect x="10" y="210" width="10" height="10" fill="#00DD66"/><rect x="20" y="210" width="10" height="10" fill="#00AA44"/><rect x="30" y="210" width="10" height="10" fill="#00DD66"/><rect x="40" y="210" width="10" height="10" fill="#00AA44"/><rect x="50" y="210" width="10" height="10" fill="#00DD66"/><rect x="60" y="210" width="10" height="10" fill="#00AA44"/><rect x="70" y="210" width="10" height="10" fill="#00DD66"/><rect x="80" y="210" width="10" height="10" fill="#00AA44"/><rect x="90" y="210" width="10" height="10" fill="#00DD66"/><rect x="100" y="210" width="10" height="10" fill="#00AA44"/><rect x="110" y="210" width="10" height="10" fill="#00DD66"/><rect x="120" y="210" width="10" height="10" fill="#00AA44"/><rect x="130" y="210" width="10" height="10" fill="#00DD66"/><rect x="140" y="210" width="10" height="10" fill="#00AA44"/><rect x="150" y="210" width="10" height="10" fill="#00DD66"/>

<!-- animated body group -->
<g>
  <animateTransform attributeName="transform" type="translate"
  values="0,0; 0,-20; 0,-22; 0,-20; 0,0; 0,0; 0,0"
  keyTimes="0; 0.2; 0.35; 0.5; 0.65; 0.85; 1"
  dur="1.2s" repeatCount="indefinite"/>

  <!-- ears -->
  <g><animateTransform attributeName="transform" type="rotate"
  values="0,50,40; -8,50,40; 5,50,40; 0,50,40"
  keyTimes="0; 0.3; 0.7; 1"
  dur="1.6s" repeatCount="indefinite" additive="sum"/><rect x="50" y="0" width="10" height="10" fill="#FFB6C1"/><rect x="40" y="10" width="10" height="10" fill="#FFB6C1"/><rect x="50" y="10" width="10" height="10" fill="#FFB6C1"/><rect x="30" y="20" width="10" height="10" fill="#F0F0F0"/><rect x="40" y="20" width="10" height="10" fill="#F0F0F0"/><rect x="50" y="20" width="10" height="10" fill="#FFB6C1"/><rect x="30" y="30" width="10" height="10" fill="#F0F0F0"/><rect x="40" y="30" width="10" height="10" fill="#DCDCDC"/><rect x="50" y="30" width="10" height="10" fill="#FFB6C1"/><rect x="30" y="40" width="10" height="10" fill="#F0F0F0"/><rect x="40" y="40" width="10" height="10" fill="#F0F0F0"/><rect x="50" y="40" width="10" height="10" fill="#FFB6C1"/></g>
  <g><animateTransform attributeName="transform" type="rotate"
  values="0,100,40; 8,100,40; -5,100,40; 0,100,40"
  keyTimes="0; 0.3; 0.7; 1"
  dur="1.6s" repeatCount="indefinite" additive="sum"/><rect x="110" y="0" width="10" height="10" fill="#FFB6C1"/><rect x="100" y="10" width="10" height="10" fill="#FFB6C1"/><rect x="110" y="10" width="10" height="10" fill="#FFB6C1"/><rect x="100" y="20" width="10" height="10" fill="#F0F0F0"/><rect x="110" y="20" width="10" height="10" fill="#F0F0F0"/><rect x="100" y="30" width="10" height="10" fill="#DCDCDC"/><rect x="110" y="30" width="10" height="10" fill="#F0F0F0"/><rect x="100" y="40" width="10" height="10" fill="#F0F0F0"/><rect x="110" y="40" width="10" height="10" fill="#F0F0F0"/></g>

  <!-- body -->
  <rect x="90" y="20" width="10" height="10" fill="#FFB6C1"/><rect x="60" y="30" width="10" height="10" fill="#FFB6C1"/><rect x="80" y="30" width="10" height="10" fill="#FFB6C1"/><rect x="90" y="30" width="10" height="10" fill="#FFB6C1"/><rect x="60" y="40" width="10" height="10" fill="#FFB6C1"/><rect x="70" y="40" width="10" height="10" fill="#FFB6C1"/><rect x="80" y="40" width="10" height="10" fill="#FFB6C1"/><rect x="90" y="40" width="10" height="10" fill="#FFB6C1"/><rect x="30" y="50" width="10" height="10" fill="#F0F0F0"/><rect x="40" y="50" width="10" height="10" fill="#F0F0F0"/><rect x="50" y="50" width="10" height="10" fill="#F0F0F0"/><rect x="60" y="50" width="10" height="10" fill="#F0F0F0"/><rect x="70" y="50" width="10" height="10" fill="#F0F0F0"/><rect x="80" y="50" width="10" height="10" fill="#F0F0F0"/><rect x="90" y="50" width="10" height="10" fill="#F0F0F0"/><rect x="100" y="50" width="10" height="10" fill="#F0F0F0"/><rect x="110" y="50" width="10" height="10" fill="#F0F0F0"/><rect x="20" y="60" width="10" height="10" fill="#F0F0F0"/><rect x="30" y="60" width="10" height="10" fill="#F0F0F0"/><rect x="40" y="60" width="10" height="10" fill="#F0F0F0"/><rect x="50" y="60" width="10" height="10" fill="#F0F0F0"/><rect x="60" y="60" width="10" height="10" fill="#F0F0F0"/><rect x="70" y="60" width="10" height="10" fill="#F0F0F0"/><rect x="80" y="60" width="10" height="10" fill="#F0F0F0"/><rect x="90" y="60" width="10" height="10" fill="#F0F0F0"/><rect x="100" y="60" width="10" height="10" fill="#F0F0F0"/><rect x="110" y="60" width="10" height="10" fill="#F0F0F0"/><rect x="120" y="60" width="10" height="10" fill="#F0F0F0"/><rect x="10" y="70" width="10" height="10" fill="#F0F0F0"/><rect x="20" y="70" width="10" height="10" fill="#F0F0F0"/><rect x="30" y="70" width="10" height="10" fill="#1a1a2a"/><rect x="40" y="70" width="10" height="10" fill="#F0F0F0"/><rect x="50" y="70" width="10" height="10" fill="#FF9BB5"/><rect x="60" y="70" width="10" height="10" fill="#F0F0F0"/><rect x="70" y="70" width="10" height="10" fill="#F0F0F0"/><rect x="80" y="70" width="10" height="10" fill="#F0F0F0"/><rect x="90" y="70" width="10" height="10" fill="#FF9BB5"/><rect x="100" y="70" width="10" height="10" fill="#F0F0F0"/><rect x="110" y="70" width="10" height="10" fill="#1a1a2a"/><rect x="120" y="70" width="10" height="10" fill="#F0F0F0"/><rect x="130" y="70" width="10" height="10" fill="#F0F0F0"/><rect x="10" y="80" width="10" height="10" fill="#F0F0F0"/><rect x="20" y="80" width="10" height="10" fill="#F0F0F0"/><rect x="30" y="80" width="10" height="10" fill="#F0F0F0"/><rect x="40" y="80" width="10" height="10" fill="#F0F0F0"/><rect x="50" y="80" width="10" height="10" fill="#F0F0F0"/><rect x="60" y="80" width="10" height="10" fill="#FFB6C1"/><rect x="70" y="80" width="10" height="10" fill="#F0F0F0"/><rect x="80" y="80" width="10" height="10" fill="#FFB6C1"/><rect x="90" y="80" width="10" height="10" fill="#F0F0F0"/><rect x="100" y="80" width="10" height="10" fill="#F0F0F0"/><rect x="110" y="80" width="10" height="10" fill="#F0F0F0"/><rect x="120" y="80" width="10" height="10" fill="#F0F0F0"/><rect x="130" y="80" width="10" height="10" fill="#F0F0F0"/><rect x="10" y="90" width="10" height="10" fill="#F0F0F0"/><rect x="20" y="90" width="10" height="10" fill="#F0F0F0"/><rect x="30" y="90" width="10" height="10" fill="#F0F0F0"/><rect x="40" y="90" width="10" height="10" fill="#F0F0F0"/><rect x="50" y="90" width="10" height="10" fill="#F0F0F0"/><rect x="60" y="90" width="10" height="10" fill="#F0F0F0"/><rect x="70" y="90" width="10" height="10" fill="#FFB6C1"/><rect x="80" y="90" width="10" height="10" fill="#F0F0F0"/><rect x="90" y="90" width="10" height="10" fill="#F0F0F0"/><rect x="100" y="90" width="10" height="10" fill="#F0F0F0"/><rect x="110" y="90" width="10" height="10" fill="#F0F0F0"/><rect x="120" y="90" width="10" height="10" fill="#F0F0F0"/><rect x="130" y="90" width="10" height="10" fill="#F0F0F0"/><rect x="10" y="100" width="10" height="10" fill="#F0F0F0"/><rect x="20" y="100" width="10" height="10" fill="#F0F0F0"/><rect x="30" y="100" width="10" height="10" fill="#F0F0F0"/><rect x="40" y="100" width="10" height="10" fill="#F0F0F0"/><rect x="50" y="100" width="10" height="10" fill="#F0F0F0"/><rect x="60" y="100" width="10" height="10" fill="#F0F0F0"/><rect x="70" y="100" width="10" height="10" fill="#F0F0F0"/><rect x="80" y="100" width="10" height="10" fill="#F0F0F0"/><rect x="90" y="100" width="10" height="10" fill="#F0F0F0"/><rect x="100" y="100" width="10" height="10" fill="#F0F0F0"/><rect x="110" y="100" width="10" height="10" fill="#F0F0F0"/><rect x="120" y="100" width="10" height="10" fill="#F0F0F0"/><rect x="130" y="100" width="10" height="10" fill="#F0F0F0"/><rect x="20" y="110" width="10" height="10" fill="#F0F0F0"/><rect x="30" y="110" width="10" height="10" fill="#F0F0F0"/><rect x="40" y="110" width="10" height="10" fill="#F0F0F0"/><rect x="50" y="110" width="10" height="10" fill="#F0F0F0"/><rect x="60" y="110" width="10" height="10" fill="#F0F0F0"/><rect x="70" y="110" width="10" height="10" fill="#F0F0F0"/><rect x="80" y="110" width="10" height="10" fill="#F0F0F0"/><rect x="90" y="110" width="10" height="10" fill="#F0F0F0"/><rect x="100" y="110" width="10" height="10" fill="#F0F0F0"/><rect x="110" y="110" width="10" height="10" fill="#F0F0F0"/><rect x="120" y="110" width="10" height="10" fill="#F0F0F0"/><rect x="20" y="120" width="10" height="10" fill="#F0F0F0"/><rect x="30" y="120" width="10" height="10" fill="#F0F0F0"/><rect x="40" y="120" width="10" height="10" fill="#F0F0F0"/><rect x="50" y="120" width="10" height="10" fill="#F0F0F0"/><rect x="60" y="120" width="10" height="10" fill="#F0F0F0"/><rect x="70" y="120" width="10" height="10" fill="#F0F0F0"/><rect x="80" y="120" width="10" height="10" fill="#F0F0F0"/><rect x="90" y="120" width="10" height="10" fill="#F0F0F0"/><rect x="100" y="120" width="10" height="10" fill="#F0F0F0"/><rect x="110" y="120" width="10" height="10" fill="#F0F0F0"/><rect x="120" y="120" width="10" height="10" fill="#F0F0F0"/><rect x="10" y="130" width="10" height="10" fill="#F0F0F0"/><rect x="20" y="130" width="10" height="10" fill="#F0F0F0"/><rect x="30" y="130" width="10" height="10" fill="#F0F0F0"/><rect x="40" y="130" width="10" height="10" fill="#F0F0F0"/><rect x="50" y="130" width="10" height="10" fill="#F0F0F0"/><rect x="60" y="130" width="10" height="10" fill="#F0F0F0"/><rect x="70" y="130" width="10" height="10" fill="#F0F0F0"/><rect x="80" y="130" width="10" height="10" fill="#F0F0F0"/><rect x="90" y="130" width="10" height="10" fill="#F0F0F0"/><rect x="100" y="130" width="10" height="10" fill="#F0F0F0"/><rect x="110" y="130" width="10" height="10" fill="#F0F0F0"/><rect x="120" y="130" width="10" height="10" fill="#F0F0F0"/><rect x="130" y="130" width="10" height="10" fill="#F0F0F0"/><rect x="10" y="140" width="10" height="10" fill="#F0F0F0"/><rect x="20" y="140" width="10" height="10" fill="#F0F0F0"/><rect x="30" y="140" width="10" height="10" fill="#F0F0F0"/><rect x="40" y="140" width="10" height="10" fill="#F0F0F0"/><rect x="50" y="140" width="10" height="10" fill="#DCDCDC"/><rect x="60" y="140" width="10" height="10" fill="#F0F0F0"/><rect x="70" y="140" width="10" height="10" fill="#F0F0F0"/><rect x="80" y="140" width="10" height="10" fill="#F0F0F0"/><rect x="90" y="140" width="10" height="10" fill="#DCDCDC"/><rect x="100" y="140" width="10" height="10" fill="#F0F0F0"/><rect x="110" y="140" width="10" height="10" fill="#F0F0F0"/><rect x="120" y="140" width="10" height="10" fill="#F0F0F0"/><rect x="130" y="140" width="10" height="10" fill="#F0F0F0"/><rect x="10" y="150" width="10" height="10" fill="#F0F0F0"/><rect x="20" y="150" width="10" height="10" fill="#F0F0F0"/><rect x="30" y="150" width="10" height="10" fill="#DCDCDC"/><rect x="40" y="150" width="10" height="10" fill="#F0F0F0"/><rect x="50" y="150" width="10" height="10" fill="#F0F0F0"/><rect x="60" y="150" width="10" height="10" fill="#F0F0F0"/><rect x="70" y="150" width="10" height="10" fill="#F0F0F0"/><rect x="80" y="150" width="10" height="10" fill="#F0F0F0"/><rect x="90" y="150" width="10" height="10" fill="#F0F0F0"/><rect x="100" y="150" width="10" height="10" fill="#F0F0F0"/><rect x="110" y="150" width="10" height="10" fill="#DCDCDC"/><rect x="120" y="150" width="10" height="10" fill="#F0F0F0"/><rect x="130" y="150" width="10" height="10" fill="#F0F0F0"/><rect x="10" y="160" width="10" height="10" fill="#F0F0F0"/><rect x="20" y="160" width="10" height="10" fill="#F0F0F0"/><rect x="30" y="160" width="10" height="10" fill="#F0F0F0"/><rect x="40" y="160" width="10" height="10" fill="#F0F0F0"/><rect x="50" y="160" width="10" height="10" fill="#F0F0F0"/><rect x="60" y="160" width="10" height="10" fill="#F0F0F0"/><rect x="70" y="160" width="10" height="10" fill="#F0F0F0"/><rect x="80" y="160" width="10" height="10" fill="#F0F0F0"/><rect x="90" y="160" width="10" height="10" fill="#F0F0F0"/><rect x="100" y="160" width="10" height="10" fill="#F0F0F0"/><rect x="110" y="160" width="10" height="10" fill="#F0F0F0"/><rect x="120" y="160" width="10" height="10" fill="#F0F0F0"/><rect x="130" y="160" width="10" height="10" fill="#F0F0F0"/><rect x="20" y="170" width="10" height="10" fill="#F0F0F0"/><rect x="30" y="170" width="10" height="10" fill="#F0F0F0"/><rect x="40" y="170" width="10" height="10" fill="#F0F0F0"/><rect x="50" y="170" width="10" height="10" fill="#F0F0F0"/><rect x="60" y="170" width="10" height="10" fill="#F0F0F0"/><rect x="70" y="170" width="10" height="10" fill="#FFB6C1"/><rect x="80" y="170" width="10" height="10" fill="#FFB6C1"/><rect x="90" y="170" width="10" height="10" fill="#F0F0F0"/><rect x="100" y="170" width="10" height="10" fill="#F0F0F0"/><rect x="110" y="170" width="10" height="10" fill="#F0F0F0"/><rect x="120" y="170" width="10" height="10" fill="#F0F0F0"/><rect x="10" y="180" width="10" height="10" fill="#FFB6C1"/><rect x="20" y="180" width="10" height="10" fill="#F0F0F0"/><rect x="30" y="180" width="10" height="10" fill="#F0F0F0"/><rect x="40" y="180" width="10" height="10" fill="#F0F0F0"/><rect x="50" y="180" width="10" height="10" fill="#F0F0F0"/><rect x="60" y="180" width="10" height="10" fill="#F0F0F0"/><rect x="70" y="180" width="10" height="10" fill="#F0F0F0"/><rect x="80" y="180" width="10" height="10" fill="#F0F0F0"/><rect x="90" y="180" width="10" height="10" fill="#F0F0F0"/><rect x="100" y="180" width="10" height="10" fill="#F0F0F0"/><rect x="110" y="180" width="10" height="10" fill="#F0F0F0"/><rect x="120" y="180" width="10" height="10" fill="#F0F0F0"/><rect x="130" y="180" width="10" height="10" fill="#FFB6C1"/><rect x="0" y="190" width="10" height="10" fill="#FFB6C1"/><rect x="10" y="190" width="10" height="10" fill="#FFB6C1"/><rect x="20" y="190" width="10" height="10" fill="#FFB6C1"/><rect x="30" y="190" width="10" height="10" fill="#F0F0F0"/><rect x="40" y="190" width="10" height="10" fill="#F0F0F0"/><rect x="50" y="190" width="10" height="10" fill="#F0F0F0"/><rect x="60" y="190" width="10" height="10" fill="#F0F0F0"/><rect x="70" y="190" width="10" height="10" fill="#F0F0F0"/><rect x="80" y="190" width="10" height="10" fill="#F0F0F0"/><rect x="90" y="190" width="10" height="10" fill="#F0F0F0"/><rect x="100" y="190" width="10" height="10" fill="#F0F0F0"/><rect x="110" y="190" width="10" height="10" fill="#F0F0F0"/><rect x="120" y="190" width="10" height="10" fill="#FFB6C1"/><rect x="130" y="190" width="10" height="10" fill="#FFB6C1"/><rect x="140" y="190" width="10" height="10" fill="#FFB6C1"/>
</g>

</svg>